<svg xmlns="http://www.w3.org/2000/svg" version="1.1" viewBox="1.1649643182754517 1.0056910514831543 536.84423828125 228.76271057128906" width="540.00" height="231.00">
<path fill="#ed1c24" d="&#xA;  M 68.31 67.07&#xA;  Q 71.97 60.46 73.68 52.97&#xA;  Q 73.91 51.95 74.67 52.68&#xA;  C 77.65 55.53 79.27 58.71 79.24 62.72&#xA;  Q 78.83 111.04 79.32 182.29&#xA;  C 79.39 192.78 81.50 204.58 93.79 206.03&#xA;  C 106.13 207.48 116.61 196.66 122.64 187.36&#xA;  Q 131.33 173.98 136.02 159.72&#xA;  Q 148.65 121.26 145.06 83.98&#xA;  C 143.33 65.91 136.71 47.85 122.85 35.84&#xA;  C 116.05 29.94 105.33 26.06 96.14 25.16&#xA;  Q 81.59 23.74 67.71 26.91&#xA;  Q 59.04 28.89 49.65 35.01&#xA;  Q 43.51 39.01 37.04 47.73&#xA;  Q 28.43 59.33 25.84 76.39&#xA;  C 22.49 98.56 25.99 119.81 39.38 138.53&#xA;  A 0.29 0.28 -13.0 0 1 39.10 138.97&#xA;  Q 25.30 136.95 16.81 127.60&#xA;  A 0.89 0.88 28.1 0 0 15.28 128.06&#xA;  Q 13.97 136.84 15.28 145.50&#xA;  Q 15.47 146.72 14.61 145.83&#xA;  C 13.58 144.78 12.63 143.51 12.04 142.14&#xA;  C 5.99 128.03 0.73 114.60 1.22 99.08&#xA;  C 1.40 93.62 0.90 88.05 1.38 82.70&#xA;  C 4.91 43.99 29.24 11.62 67.89 3.17&#xA;  Q 81.77 0.13 98.64 1.36&#xA;  Q 119.22 2.85 136.99 15.83&#xA;  Q 142.10 19.56 145.44 23.43&#xA;  C 151.04 29.94 156.09 36.98 159.71 45.02&#xA;  Q 167.08 61.41 169.10 79.04&#xA;  Q 172.56 109.26 165.96 142.51&#xA;  Q 162.05 162.19 154.60 178.39&#xA;  Q 152.03 183.95 145.57 195.32&#xA;  C 143.05 199.75 139.60 203.22 136.35 207.07&#xA;  Q 124.18 221.45 107.31 227.99&#xA;  C 101.19 230.36 94.62 229.72 88.24 229.60&#xA;  C 74.91 229.36 64.31 220.99 59.58 208.55&#xA;  C 56.01 199.18 55.04 188.61 54.97 178.50&#xA;  Q 54.72 146.51 54.90 114.51&#xA;  C 54.99 97.83 54.69 80.08 55.09 62.59&#xA;  C 55.15 60.36 54.75 58.33 54.34 56.18&#xA;  A 0.69 0.68 10.9 0 1 55.38 55.48&#xA;  Q 62.32 59.87 67.12 67.11&#xA;  A 0.70 0.70 0.0 0 0 68.31 67.07&#xA;  Z" data-c-fill="ed1c24"/>
<path fill="#ffffff" d="&#xA;  M 222.68 97.27&#xA;  Q 212.88 97.74 199.50 97.13&#xA;  C 191.80 96.77 185.84 94.28 187.33 85.16&#xA;  C 188.06 80.68 191.69 78.11 196.03 77.82&#xA;  Q 201.19 77.47 206.29 77.47&#xA;  Q 239.57 77.42 273.64 77.57&#xA;  Q 276.12 77.58 277.99 78.89&#xA;  Q 285.03 83.80 281.56 91.82&#xA;  Q 279.35 96.91 272.73 97.01&#xA;  C 266.58 97.11 260.34 96.93 254.22 97.37&#xA;  Q 250.51 97.64 247.22 97.26&#xA;  A 0.82 0.82 0.0 0 0 246.31 97.96&#xA;  C 245.43 104.72 245.76 111.29 245.78 117.98&#xA;  Q 245.86 149.36 246.09 179.27&#xA;  C 246.15 186.06 246.14 194.09 238.18 195.79&#xA;  C 231.67 197.18 223.69 194.08 223.67 186.40&#xA;  Q 223.57 149.06 223.59 108.53&#xA;  Q 223.59 103.25 223.26 97.78&#xA;  Q 223.22 97.24 222.68 97.27&#xA;  Z" data-c-fill="000000"/>
<path fill="#ffffff" d="&#xA;  M 374.17 158.42&#xA;  C 374.91 164.71 378.47 170.27 383.58 173.77&#xA;  Q 396.04 182.30 410.15 177.70&#xA;  C 416.97 175.47 425.91 167.35 432.33 175.18&#xA;  Q 434.18 177.42 433.89 180.70&#xA;  C 433.48 185.44 429.21 189.05 425.35 191.32&#xA;  C 414.81 197.49 403.12 199.04 391.16 197.46&#xA;  C 374.08 195.22 358.49 181.22 354.75 164.22&#xA;  Q 351.22 148.20 356.84 131.72&#xA;  C 359.04 125.26 363.23 121.13 367.54 116.11&#xA;  C 373.58 109.07 382.45 105.36 391.84 104.08&#xA;  Q 401.32 102.79 409.81 105.96&#xA;  Q 426.57 112.22 434.80 128.16&#xA;  Q 439.85 137.95 439.82 147.06&#xA;  C 439.80 155.52 434.00 157.79 426.57 157.89&#xA;  Q 404.80 158.20 385.05 157.75&#xA;  C 381.61 157.67 378.41 158.35 374.99 157.67&#xA;  A 0.69 0.68 2.5 0 0 374.17 158.42&#xA;  Z&#xA;  M 417.11 136.54&#xA;  Q 415.24 129.82 409.40 126.17&#xA;  Q 404.08 122.84 399.83 122.43&#xA;  Q 393.07 121.79 385.50 124.63&#xA;  C 378.62 127.21 376.25 132.59 374.10 139.05&#xA;  A 0.90 0.89 -71.2 0 0 374.65 140.18&#xA;  Q 375.74 140.55 376.74 140.57&#xA;  Q 398.24 140.82 417.66 140.51&#xA;  A 0.83 0.83 0.0 0 0 418.39 139.31&#xA;  C 417.94 138.39 417.39 137.53 417.11 136.54&#xA;  Z" data-c-fill="000000"/>
<path fill="#ffffff" d="&#xA;  M 472.03 158.48&#xA;  Q 472.99 162.77 474.56 165.43&#xA;  Q 483.62 180.75 502.80 178.93&#xA;  Q 507.92 178.44 511.21 176.81&#xA;  C 516.66 174.11 523.04 168.96 528.98 173.57&#xA;  Q 531.65 175.63 532.10 178.92&#xA;  C 533.60 189.80 513.33 196.66 505.85 197.58&#xA;  C 482.36 200.49 462.12 190.08 453.77 167.40&#xA;  Q 452.41 163.70 452.12 160.23&#xA;  Q 451.10 148.07 452.95 139.38&#xA;  Q 456.60 122.23 470.81 111.60&#xA;  Q 482.47 102.88 498.82 103.80&#xA;  Q 508.71 104.35 517.56 110.68&#xA;  Q 534.87 123.06 537.73 143.18&#xA;  C 539.08 152.69 535.62 157.93 525.48 157.96&#xA;  Q 500.54 158.05 472.53 157.84&#xA;  Q 471.88 157.84 472.03 158.48&#xA;  Z&#xA;  M 472.49 140.58&#xA;  L 516.13 140.74&#xA;  A 0.01 0.01 0.0 0 0 516.14 140.73&#xA;  L 516.14 140.66&#xA;  A 20.61 18.00 0.2 0 0 495.59 122.58&#xA;  L 493.15 122.58&#xA;  A 20.61 18.00 0.2 0 0 472.48 140.50&#xA;  L 472.48 140.57&#xA;  A 0.01 0.01 0.0 0 0 472.49 140.58&#xA;  Z" data-c-fill="000000"/>
<path fill="#ffffff" d="&#xA;  M 308.64 117.09&#xA;  A 0.77 0.77 0.0 0 0 310.08 117.34&#xA;  C 315.41 107.06 325.00 104.31 335.73 103.93&#xA;  C 340.44 103.77 347.06 106.97 347.51 112.43&#xA;  C 347.82 116.22 346.91 120.76 343.14 122.62&#xA;  Q 339.63 124.35 336.41 123.55&#xA;  C 330.34 122.04 325.41 120.88 319.36 123.77&#xA;  C 312.65 126.97 309.07 136.28 309.01 143.28&#xA;  Q 308.86 161.60 309.05 181.72&#xA;  C 309.13 189.18 307.96 195.08 299.45 196.11&#xA;  C 295.00 196.65 290.58 193.84 289.24 189.58&#xA;  C 288.37 186.80 288.61 183.88 288.60 180.92&#xA;  Q 288.44 148.46 288.76 117.19&#xA;  C 288.81 112.58 289.90 108.82 293.82 106.71&#xA;  C 300.15 103.30 310.02 107.98 308.66 116.01&#xA;  Q 308.57 116.56 308.64 117.09&#xA;  Z" data-c-fill="000000"/>
</svg>